# xmcd
#
# Track frame offsets:
#	150
#	22355
#	46088
#	87580
#	118298
#	137018
#	160718
#	177140
#	213343
#	228778
#	251153
#	272145
#
# Disc length: 3830 seconds
#
# Revision: 1
# Processed by: cddbd v1.5.1PL0 Copyright (c) Steve Scherf et al.
# Submitted via: audiograbber 1.82.01
#
DISCID=a80ef40c
DTITLE=Monografie - 02 Chitarre
DYEAR=1900
DGENRE=New Age
TTITLE0=Ottmar Liebert - Waiting 4 Styars 2 Fall
TTITLE1=Ralf Illenberg - Horizons I
TTITLE2=Erlend Krauser - Groovin' Bonny and Clyde
TTITLE3=Erlend Krauser - Riders On The Storms
TTITLE4=Lutte Berg - Sahib
TTITLE5=Jaleo - Il Vito
TTITLE6=Quintana and Speer - Congo Bongo
TTITLE7=Paul Speer - Allegretto In E
TTITLE8=Ralf Illenberg - Dancing Kachinas
TTITLE9=Quintana and Speer - Paseos En Tiempo
TTITLE10=Flying Foxes - Night In Panama
TTITLE11=Martin Kolbe - Bye Bye Lullaby
EXTD=
EXTT0=
EXTT1=
EXTT2=
EXTT3=
EXTT4=
EXTT5=
EXTT6=
EXTT7=
EXTT8=
EXTT9=
EXTT10=
EXTT11=
PLAYORDER=
